<?xml version="1.0" encoding="UTF-8" standalone="no"?>
<!-- Created with Inkscape (http://www.inkscape.org/) -->

<svg
   xmlns:dc="http://purl.org/dc/elements/1.1/"
   xmlns:cc="http://creativecommons.org/ns#"
   xmlns:rdf="http://www.w3.org/1999/02/22-rdf-syntax-ns#"
   xmlns:svg="http://www.w3.org/2000/svg"
   xmlns="http://www.w3.org/2000/svg"
   xmlns:xlink="http://www.w3.org/1999/xlink"
   xmlns:sodipodi="http://sodipodi.sourceforge.net/DTD/sodipodi-0.dtd"
   xmlns:inkscape="http://www.inkscape.org/namespaces/inkscape"
   width="344.184133221"
   height="290.542155631" viewBox="0 0 639.97076 540.22968"
   id="svg2"
   version="1.1"
   inkscape:version="0.48.5 r10040"
   sodipodi:docname="New document 1">
  <title
     id="title7244">Liberal Party (Philippines)</title>
  <defs
     id="defs4" />
  <sodipodi:namedview
     id="base"
     pagecolor="#ffffff"
     bordercolor="#666666"
     borderopacity="1.0"
     inkscape:pageopacity="0.0"
     inkscape:pageshadow="2"
     inkscape:zoom="0.3125"
     inkscape:cx="466.48818"
     inkscape:cy="124.34185"
     inkscape:document-units="px"
     inkscape:current-layer="layer1"
     showgrid="false"
     inkscape:snap-bbox="false"
     inkscape:object-paths="true"
     inkscape:snap-intersection-paths="false"
     inkscape:object-nodes="true"
     inkscape:snap-midpoints="true"
     inkscape:snap-smooth-nodes="true"
     inkscape:snap-bbox-edge-midpoints="true"
     inkscape:bbox-nodes="true"
     inkscape:bbox-paths="true"
     inkscape:snap-global="false"
     inkscape:snap-nodes="true"
     inkscape:snap-bbox-midpoints="true"
     inkscape:snap-object-midpoints="true"
     inkscape:snap-center="true"
     showguides="true"
     inkscape:guide-bbox="true"
     fit-margin-top="0"
     fit-margin-left="0"
     fit-margin-right="0"
     fit-margin-bottom="0"
     inkscape:window-width="1366"
     inkscape:window-height="705"
     inkscape:window-x="-8"
     inkscape:window-y="-8"
     inkscape:window-maximized="1" />
  <metadata
     id="metadata7">
    <rdf:RDF>
      <cc:Work
         rdf:about="">
        <dc:format>image/svg+xml</dc:format>
        <dc:type
           rdf:resource="http://purl.org/dc/dcmitype/StillImage" />
        <dc:title>Liberal Party (Philippines)</dc:title>
        <dc:publisher>
          <cc:Agent>
            <dc:title>Partido Liberal ng Pilipinas</dc:title>
          </cc:Agent>
        </dc:publisher>
        <dc:description>Logo of the Liberal Party (Philippines)
Sagisag ng Partido Liberal ng Pilipinas</dc:description>
      </cc:Work>
    </rdf:RDF>
  </metadata>
  <g
     inkscape:label="Layer 1"
     inkscape:groupmode="layer"
     id="layer1"
     transform="translate(-32.500866,-85.359651)">
    <g
       id="g7214"
       transform="matrix(0.97705462,0,0,0.98095387,0.74659072,11.91073)">
      <path
         sodipodi:nodetypes="ccssscccssscccc"
         inkscape:connector-curvature="0"
         id="path5598"
         d="m 40,82.362183 0,49.999997 c 36.08843,5.79043 59.905537,27.8688 60,55 0.35071,100.7287 -0.510361,242.7043 0,350 0.12905,27.13106 32.86864,54.97404 60,55 54.48087,0.0521 111.24435,-0.11422 170,0 13.54516,0.69494 22.24074,8.74102 30,20 7.75926,-11.25898 16.45484,-19.30506 30,-20 58.75565,-0.11422 115.51913,0.0521 170,0 27.13136,-0.026 59.87095,-27.86894 60,-55 0.51036,-107.2957 -0.35071,-249.2713 0,-350 0.0945,-27.1312 23.91157,-49.20957 60,-55 L 680,82.362183 360,82.375 z"
         style="fill:#ffffff;fill-opacity:1;stroke:#0038a8;stroke-width:15;stroke-linecap:butt;stroke-linejoin:miter;stroke-miterlimit:4;stroke-opacity:1;stroke-dasharray:none" />
      <path
         sodipodi:nodetypes="cccscsc"
         inkscape:connector-curvature="0"
         id="path6652"
         d="m 360,612.36218 0,-425 -260,0 c 0,0 -0.156378,242.70457 0,350 0.0395,27.13134 25.97306,46.66645 60,55 0,0 115.25787,-0.0957 170,0 12.01849,0.021 30,20 30,20 z"
         style="fill:#0038a8;fill-opacity:1;stroke:none" />
      <path
         sodipodi:nodetypes="cccccscc"
         inkscape:connector-curvature="0"
         id="path6788"
         d="m 360,187.36218 133.75,0 133.75,0 c 0.77177,106.53182 0.41213,234.27295 0,350 0.0223,29.35903 -32.94102,62.17694 -65.9,62.75 -101.34311,1.07567 -148.80628,-0.57645 -169.17658,0.13516 -12.57064,0.43914 -17.32715,5.80614 -32.42342,25.11484 -0.82157,-145.19996 0.0432,-259.53161 0,-438 z"
         style="color:#000000;fill:#ce1126;fill-opacity:1;fill-rule:nonzero;stroke:none;stroke-width:15;marker:none;visibility:visible;display:inline;overflow:visible;enable-background:accumulate" />
      <g
         style="fill:#fcd116"
         transform="matrix(3.8157895,0,0,3.8157895,493.75,314.14347)"
         id="g6826">
        <circle
           d="M 9,0 C 9,4.9705627 4.9705627,9 0,9 -4.9705627,9 -9,4.9705627 -9,0 c 0,-4.9705627 4.0294373,-9 9,-9 4.9705627,0 9,4.0294373 9,9 z"
           sodipodi:ry="9"
           sodipodi:rx="9"
           sodipodi:cy="0"
           sodipodi:cx="0"
           cy="0"
           cx="0"
           r="9"
           id="circle6828" />
        <g
           id="j-8">
          <g
             id="i-8">
            <g
               id="h-2">
              <!-- these coordinates are  -1/(1+tan(k*Pi/48)),1-1/(1+tan(k*Pi/48)) -->
              <path
                 inkscape:connector-curvature="0"
                 d="M -1,0 -0.93848823,0.06151177 0,0 -0.93848823,-0.06151177 z"
                 transform="scale(19,19)"
                 id="path6833" />
              <path
                 inkscape:connector-curvature="0"
                 id="g-4"
                 d="m -0.88366349,0.11633651 0.0495742,0.0495742 L 0,0 z"
                 transform="scale(19.238092,19.238092)" />
              <use
                 height="1"
                 width="1"
                 y="0"
                 x="0"
                 xlink:href="#g-4"
                 transform="scale(1,-1)"
                 id="use6836" />
            </g>
            <use
               height="1"
               width="1"
               y="0"
               x="0"
               xlink:href="#h-2"
               transform="matrix(0.70710678,0.70710678,-0.70710678,0.70710678,0,0)"
               id="use6838" />
          </g>
          <use
             height="1"
             width="1"
             y="0"
             x="0"
             xlink:href="#i-8"
             transform="matrix(0,1,-1,0,0,0)"
             id="use6840" />
        </g>
        <use
           height="1"
           width="1"
           y="0"
           x="0"
           xlink:href="#j-8"
           transform="scale(-1,-1)"
           id="use6842" />
      </g>
      <path
         transform="matrix(1.1442125,0,0,1.1962575,222.566,331.28177)"
         inkscape:transform-center-y="-2.1098708"
         inkscape:transform-center-x="-0.12147715"
         d="m 168,-70.837814 -11.33056,-8.579563 -11.62535,8.175668 4.65831,-13.427232 -11.36795,-8.52995 14.20955,0.281076 4.59958,-13.447465 4.12367,13.600946 14.21065,0.218959 -11.66099,8.12477 z"
         inkscape:randomized="0"
         inkscape:rounded="1.44676e-015"
         inkscape:flatsided="false"
         sodipodi:arg2="1.5883889"
         sodipodi:arg1="0.96007036"
         sodipodi:r2="7.421586"
         sodipodi:r1="19.530489"
         sodipodi:cy="-86.837814"
         sodipodi:cx="156.8"
         sodipodi:sides="5"
         id="path6906"
         style="color:#000000;fill:#fcd116;fill-opacity:1;fill-rule:nonzero;stroke:none;stroke-width:15;marker:none;visibility:visible;display:inline;overflow:visible;enable-background:accumulate"
         sodipodi:type="star" />
      <path
         transform="matrix(1.1442125,0,0,1.1962575,407.20736,329.00057)"
         inkscape:transform-center-y="-2.109881"
         inkscape:transform-center-x="-0.12147687"
         d="m 168,-70.837814 -11.33056,-8.579563 -11.62535,8.175668 4.65831,-13.427232 -11.36795,-8.52995 14.20955,0.281076 4.59958,-13.447465 4.12367,13.600946 14.21065,0.218959 -11.66099,8.12477 z"
         inkscape:randomized="0"
         inkscape:rounded="1.44676e-015"
         inkscape:flatsided="false"
         sodipodi:arg2="1.5883889"
         sodipodi:arg1="0.96007036"
         sodipodi:r2="7.421586"
         sodipodi:r1="19.530489"
         sodipodi:cy="-86.837814"
         sodipodi:cx="156.8"
         sodipodi:sides="5"
         id="path6906-5"
         style="color:#000000;fill:#fcd116;fill-opacity:1;fill-rule:nonzero;stroke:none;stroke-width:15;marker:none;visibility:visible;display:inline;overflow:visible;enable-background:accumulate"
         sodipodi:type="star" />
      <path
         transform="matrix(1.1442125,0,0,1.1962575,314.26502,533.60245)"
         inkscape:transform-center-y="-2.1098708"
         inkscape:transform-center-x="-0.12147715"
         d="m 168,-70.837814 -11.33056,-8.579563 -11.62535,8.175668 4.65831,-13.427232 -11.36795,-8.52995 14.20955,0.281076 4.59958,-13.447465 4.12367,13.600946 14.21065,0.218959 -11.66099,8.12477 z"
         inkscape:randomized="0"
         inkscape:rounded="1.44676e-015"
         inkscape:flatsided="false"
         sodipodi:arg2="1.5883889"
         sodipodi:arg1="0.96007036"
         sodipodi:r2="7.421586"
         sodipodi:r1="19.530489"
         sodipodi:cy="-86.837814"
         sodipodi:cx="156.8"
         sodipodi:sides="5"
         id="path6906-7"
         style="color:#000000;fill:#fcd116;fill-opacity:1;fill-rule:nonzero;stroke:none;stroke-width:15;marker:none;visibility:visible;display:inline;overflow:visible;enable-background:accumulate"
         sodipodi:type="star" />
      <path
         sodipodi:nodetypes="ccsscccccccscccc"
         inkscape:connector-curvature="0"
         id="path7004"
         d="m 123.75,209.875 0,24.5 c 25.02862,1.88326 33.07166,18.04445 33.5,33.9375 2.06221,76.51577 1.26954,152.21982 0,235.3125 -0.21263,13.91687 -14.42186,19.16083 -33.5,24.90625 l 0,33.83093 91.25,0.0128 317.8125,-0.0128 67.1875,-117 -50,0 c -46.90819,79.49716 -278.47555,112.47058 -278.125,28.41907 0,0 -0.37437,-142.16288 0.875,-205.46875 0.31364,-15.89241 9.36737,-30.61335 33.5,-33.9375 l 0,-24.5 -91.25,0 z"
         style="fill:#ffffff;fill-opacity:1;stroke:none" />
      <g
         id="text7013"
         style="font-size:101.06410217px;font-style:normal;font-variant:normal;font-weight:bold;font-stretch:normal;text-align:start;line-height:125%;letter-spacing:6.95142651px;word-spacing:0px;writing-mode:lr-tb;text-anchor:start;fill:#ce1126;fill-opacity:1;stroke:none;font-family:Imperial;-inkscape-font-specification:Imperial"
         transform="scale(0.98712595,1.013042)">
        <path
           id="path7200"
           style="fill:#ce1126;font-family:Times New Roman;-inkscape-font-specification:Times New Roman"
           d="m 181.26568,145.61546 -2.51673,23.48951 -59.41464,0 0,-1.82587 2.22065,0 c 1.941,0 3.50368,-0.34543 4.68803,-1.0363 0.85535,-0.46058 1.51332,-1.25014 1.97391,-2.36869 0.36187,-0.78956 0.54281,-2.86216 0.54282,-6.21781 l 0,-44.01816 c -10e-6,-3.42138 -0.18095,-5.55978 -0.54282,-6.4152 -0.36189,-0.8553 -1.09389,-1.60374 -2.19597,-2.24532 -1.10211,-0.64145 -2.59076,-0.96221 -4.46597,-0.96228 l -2.22065,0 0,-1.82586 35.67839,0 0,1.82586 -2.91151,0 c -1.94104,7e-5 -3.50372,0.3455 -4.68803,1.0363 -0.85539,0.46064 -1.52981,1.25021 -2.02326,2.36869 -0.36191,0.78963 -0.54285,2.86223 -0.54282,6.21781 l 0,42.63642 c -3e-5,3.42145 0.19736,5.60097 0.59217,6.53857 0.39475,0.93761 1.16786,1.63671 2.31934,2.09728 0.82243,0.29609 2.81279,0.44413 5.97107,0.44413 l 5.57629,0 c 3.55299,0 6.51385,-0.62507 8.88259,-1.87521 2.36864,-1.25014 4.41657,-3.22404 6.14379,-5.92173 1.72711,-2.69766 3.36381,-6.67837 4.9101,-11.94214 z"
           inkscape:connector-curvature="0" />
        <path
           id="path7202"
           style="fill:#ce1126;font-family:Times New Roman;-inkscape-font-specification:Times New Roman"
           d="m 228.92896,167.2791 0,1.82587 -34.98752,0 0,-1.82587 2.22065,0 c 1.941,0 3.50367,-0.34543 4.68803,-1.0363 0.85535,-0.46058 1.51332,-1.25014 1.97391,-2.36869 0.36187,-0.78956 0.54281,-2.86216 0.54282,-6.21781 l 0,-44.01816 c -1e-5,-3.42138 -0.18095,-5.55978 -0.54282,-6.4152 -0.3619,-0.8553 -1.09389,-1.60374 -2.19598,-2.24532 -1.1021,-0.64145 -2.59076,-0.96221 -4.46596,-0.96228 l -2.22065,0 0,-1.82586 34.98752,0 0,1.82586 -2.22064,0 c -1.94105,7e-5 -3.50372,0.3455 -4.68804,1.0363 -0.85539,0.46064 -1.5298,1.25021 -2.02325,2.36869 -0.36191,0.78963 -0.54286,2.86223 -0.54283,6.21781 l 0,44.01816 c -3e-5,3.42145 0.18914,5.55984 0.5675,6.4152 0.3783,0.85536 1.11852,1.6038 2.22065,2.24532 1.10207,0.64152 2.59072,0.96228 4.46597,0.96228 z"
           inkscape:connector-curvature="0" />
        <path
           id="path7204"
           style="fill:#ce1126;font-family:Times New Roman;-inkscape-font-specification:Times New Roman"
           d="m 283.10614,133.62396 c 6.34936,1.48047 10.8071,3.27343 13.37323,5.3789 3.68457,2.99379 5.52688,6.87581 5.52694,11.64606 -6e-5,5.03348 -2.02331,9.19513 -6.06976,12.48497 -4.96773,3.98072 -12.18893,5.97108 -21.66365,5.97108 l -34.00057,0 0,-1.82587 c 3.09246,0 5.18973,-0.28786 6.29184,-0.86358 1.10209,-0.57572 1.8752,-1.32416 2.31934,-2.24533 0.44412,-0.92115 0.66618,-3.19114 0.66619,-6.80998 l 0,-43.42598 c -1e-5,-3.61877 -0.22207,-5.89699 -0.66619,-6.83466 -0.44414,-0.93754 -1.22548,-1.68598 -2.34402,-2.24532 -1.11855,-0.55921 -3.2076,-0.83884 -6.26716,-0.83891 l 0,-1.82586 32.07601,0 c 7.66531,6e-5 13.09355,0.68271 16.28475,2.04793 3.19109,1.36535 5.70782,3.40505 7.5502,6.11911 1.84225,2.71418 2.76341,5.60102 2.76347,8.66052 -6e-5,3.2241 -1.16796,6.09449 -3.50369,8.61118 -2.33585,2.51677 -6.44815,4.51535 -12.33693,5.99574 z m -17.96256,-1.33238 c 4.67155,3e-5 8.11766,-0.52634 10.33834,-1.57913 2.22061,-1.05271 3.9231,-2.53314 5.10749,-4.44129 1.1843,-1.90807 1.77647,-4.34255 1.77652,-7.30346 -5e-5,-2.96081 -0.58399,-5.38707 -1.75185,-7.27879 -1.16793,-1.8916 -2.83753,-3.33091 -5.00879,-4.31793 -2.17133,-0.98689 -5.65857,-1.46391 -10.46171,-1.43108 z m 0,3.84912 0,21.46625 -0.0494,2.46738 c -3e-5,1.77653 0.45233,3.11714 1.35706,4.02184 0.90468,0.90472 2.24529,1.35707 4.02184,1.35706 2.63184,1e-5 5.0581,-0.58394 7.27879,-1.75184 2.2206,-1.16789 3.9231,-2.86216 5.10748,-5.08281 1.1843,-2.22064 1.77648,-4.69624 1.77652,-7.42683 -4e-5,-3.12534 -0.72381,-5.92993 -2.1713,-8.41379 -1.44757,-2.4838 -3.43793,-4.21919 -5.97107,-5.20618 -2.53322,-0.98692 -6.31654,-1.46395 -11.34997,-1.43108 z"
           inkscape:connector-curvature="0" />
        <path
           id="path7206"
           style="fill:#ce1126;font-family:Times New Roman;-inkscape-font-specification:Times New Roman"
           d="m 340.14549,106.0386 0,27.23993 1.33239,0 c 4.24387,4e-5 7.31988,-1.33235 9.22802,-3.99716 1.90807,-2.66474 3.12532,-6.5961 3.65173,-11.79411 l 1.87522,0 0,35.03688 -1.87522,0 c -0.39482,-3.81621 -1.2255,-6.94156 -2.49206,-9.37607 -1.26662,-2.43446 -2.73883,-4.07115 -4.41662,-4.91009 -1.67785,-0.83888 -4.11233,-1.25834 -7.30346,-1.25837 l 0,18.85082 c -2e-5,3.68464 0.15624,5.93818 0.46881,6.76064 0.3125,0.82247 0.89645,1.49688 1.75184,2.02325 0.85533,0.52638 2.23707,0.78957 4.14521,0.78957 l 3.99716,0 c 6.25067,0 11.25945,-1.44753 15.02638,-4.3426 3.76682,-2.89506 6.47271,-7.30345 8.1177,-13.22519 l 1.82586,0 -3.01021,21.26887 -57.83551,0 0,-1.82587 2.22065,0 c 1.941,0 3.50368,-0.34543 4.68803,-1.0363 0.85535,-0.46058 1.51332,-1.25014 1.97391,-2.36869 0.36187,-0.78956 0.54281,-2.86216 0.54282,-6.21781 l 0,-44.01816 c -10e-6,-3.0266 -0.0823,-4.88536 -0.24674,-5.57629 -0.32899,-1.15138 -0.93761,-2.03964 -1.82586,-2.66477 -1.25015,-0.9211 -2.96087,-1.38167 -5.13216,-1.38174 l -2.22065,0 0,-1.82586 56.00965,0 0,19.78843 -1.87522,0 c -0.95411,-4.83603 -2.29472,-8.30681 -4.02183,-10.41237 -1.72722,-2.10544 -4.16993,-3.65167 -7.32814,-4.63868 -1.84236,-0.59211 -5.29669,-0.8882 -10.36302,-0.88826 z"
           inkscape:connector-curvature="0" />
        <path
           id="path7208"
           style="fill:#ce1126;font-family:Times New Roman;-inkscape-font-specification:Times New Roman"
           d="m 413.91372,138.60808 0,18.75213 c -3e-5,3.61884 0.22204,5.89706 0.66619,6.83466 0.4441,0.93761 1.22544,1.68605 2.34402,2.24532 1.11851,0.55928 3.20757,0.83891 6.26716,0.83891 l 0,1.82587 -34.24731,0 0,-1.82587 c 3.09245,0 5.18972,-0.28786 6.29183,-0.86358 1.10209,-0.57572 1.8752,-1.32416 2.31934,-2.24533 0.44412,-0.92115 0.66619,-3.19114 0.6662,-6.80998 l 0,-43.42598 c -1e-5,-3.61877 -0.22208,-5.89699 -0.6662,-6.83466 -0.44414,-0.93754 -1.22547,-1.68598 -2.34401,-2.24532 -1.11856,-0.55921 -3.20761,-0.83884 -6.26716,-0.83891 l 0,-1.82586 31.08905,0 c 8.09299,6e-5 14.0147,0.55934 17.76518,1.67782 3.75037,1.11861 6.80992,3.18299 9.17867,6.19313 2.36863,3.01027 3.55297,6.53863 3.55304,10.58509 -7e-5,4.93481 -1.77658,9.01422 -5.32956,12.23823 -2.27005,2.03974 -5.44475,3.56952 -9.5241,4.58934 l 16.08735,22.65059 c 2.10543,2.92797 3.60231,4.75384 4.49064,5.4776 1.34877,1.01985 2.91144,1.57913 4.68803,1.67782 l 0,1.82587 -21.07147,0 -21.56495,-30.49689 z m 0,-32.81622 0,29.31254 2.81282,0 c 4.57285,3e-5 7.99429,-0.41943 10.26432,-1.25837 2.26995,-0.83888 4.05469,-2.3522 5.35423,-4.53999 1.29944,-2.18771 1.94918,-5.04165 1.94923,-8.56183 -5e-5,-5.09921 -1.19262,-8.86608 -3.57771,-11.30062 -2.38518,-2.43443 -6.22607,-3.65167 -11.52269,-3.65173 z"
           inkscape:connector-curvature="0" />
        <path
           id="path7210"
           style="fill:#ce1126;font-family:Times New Roman;-inkscape-font-specification:Times New Roman"
           d="m 509.09883,150.05675 -23.63755,0 -2.81282,6.5139 c -0.92117,2.17131 -1.38175,3.96427 -1.38173,5.3789 -2e-5,1.87522 0.75665,3.25695 2.26999,4.14521 0.88824,0.52637 3.07599,0.92115 6.56325,1.18434 l 0,1.82587 -22.25582,0 0,-1.82587 c 2.40159,-0.36188 4.37549,-1.35706 5.92173,-2.98554 1.54622,-1.62846 3.45433,-4.99233 5.72433,-10.0916 l 23.93364,-53.39422 0.9376,0 24.13103,54.87465 c 2.30283,5.19797 4.19449,8.47136 5.67499,9.82019 1.11848,1.01986 2.6976,1.61203 4.73738,1.77652 l 0,1.82587 -32.3721,0 0,-1.82587 1.33239,0 c 2.59894,0 4.4248,-0.36188 5.4776,-1.08565 0.72372,-0.52637 1.0856,-1.28304 1.08565,-2.26999 -5e-5,-0.59217 -0.0987,-1.20079 -0.29609,-1.82587 -0.0658,-0.29608 -0.55932,-1.52977 -1.48043,-3.70108 z m -1.67782,-3.65173 -9.96823,-23.04538 -10.26433,23.04538 z"
           inkscape:connector-curvature="0" />
        <path
           id="path7212"
           style="fill:#ce1126;font-family:Times New Roman;-inkscape-font-specification:Times New Roman"
           d="m 610.8472,145.61546 -2.51674,23.48951 -59.41464,0 0,-1.82587 2.22065,0 c 1.941,0 3.50368,-0.34543 4.68803,-1.0363 0.85535,-0.46058 1.51332,-1.25014 1.97391,-2.36869 0.36187,-0.78956 0.54281,-2.86216 0.54283,-6.21781 l 0,-44.01816 c -2e-5,-3.42138 -0.18096,-5.55978 -0.54283,-6.4152 -0.36189,-0.8553 -1.09388,-1.60374 -2.19597,-2.24532 -1.10211,-0.64145 -2.59076,-0.96221 -4.46597,-0.96228 l -2.22065,0 0,-1.82586 35.6784,0 0,1.82586 -2.91152,0 c -1.94104,7e-5 -3.50372,0.3455 -4.68803,1.0363 -0.85539,0.46064 -1.52981,1.25021 -2.02326,2.36869 -0.36191,0.78963 -0.54285,2.86223 -0.54282,6.21781 l 0,42.63642 c -3e-5,3.42145 0.19736,5.60097 0.59217,6.53857 0.39475,0.93761 1.16787,1.63671 2.31934,2.09728 0.82243,0.29609 2.81279,0.44413 5.97108,0.44413 l 5.57629,0 c 3.55299,0 6.51384,-0.62507 8.88258,-1.87521 2.36864,-1.25014 4.41657,-3.22404 6.14379,-5.92173 1.72711,-2.69766 3.36381,-6.67837 4.9101,-11.94214 z"
           inkscape:connector-curvature="0" />
      </g>
    </g>
  </g>
</svg>
